<svg
      role='presentation'
      width='24'
      height='24'
      svg-compile='<svg xmlns="http://www.w3.org/2000/svg" width="24" height="24" viewBox="0 0 24 24">
    <path fill="currentColor" fillRule="nonzero" d="M13.073 19l-4.646 3.65A1.5 1.5 0 0 1 6 21.472V19a5 5 0 0 1-5-5V7a5 5 0 0 1 5-5h12a5 5 0 0 1 5 5v7a5 5 0 0 1-5 5h-4.927zM8 20.443L12.381 17H18a3 3 0 0 0 3-3V7a3 3 0 0 0-3-3H6a3 3 0 0 0-3 3v7a3 3 0 0 0 3 3h2v3.443z"/>
</svg>
'
      viewBox='0 0 24 24'
    >
      <path
        xmlns='http://www.w3.org/2000/svg'
        d='M13.073 19l-4.646 3.65A1.5 1.5 0 0 1 6 21.472V19a5 5 0 0 1-5-5V7a5 5 0 0 1 5-5h12a5 5 0 0 1 5 5v7a5 5 0 0 1-5 5h-4.927zM8 20.443L12.381 17H18a3 3 0 0 0 3-3V7a3 3 0 0 0-3-3H6a3 3 0 0 0-3 3v7a3 3 0 0 0 3 3h2v3.443z'
        fillRule='nonzero'
        fill='currentColor'
      ></path>
    </svg>